<svg xmlns="http://www.w3.org/2000/svg" viewBox="0 0 64 64" width="32" height="32" class="logo h-8 w-8"><path fill="#2d66bb" d="M16,12Q30.8,25.7,46.3,41Q53.2,48,48.5,51.7Q34,60.3,19,53.5Q4,47,1.5,30Q-1,9,9,8.5Q12.2,8.3,16,12"></path><path fill="#2d66bb" clip-path="url(#shadow)" d="M16,12Q30.8,25.7,46.3,41Q53.2,48,48.5,51.7Q34,60.3,19,53.5Q4,47,1.5,30Q-1,9,9,8.5Q12.2,8.3,16,12"></path><path fill="#479ffa" d="M48,12Q33.2,25.7,17.7,41Q10.8,48,15.5,51.7Q30,60.3,45,53.5Q60,47,62.5,30Q65,9,55,8.5Q51.8,8.3,48,12"></path><defs><clipPath id="shadow"><path d="M64,5L0,45L0,64L64,64L64,5"></path></clipPath></defs></svg>